<svg xmlns="http://www.w3.org/2000/svg" viewBox="0 0 19.01 22.24"><defs><style>.cls-1{fill:#fff;}</style></defs><title>departemen</title><g id="Layer_2" data-name="Layer 2"><g id="Layer_1-2" data-name="Layer 1"><path class="cls-1" d="M16.25,0H2.76A2.77,2.77,0,0,0,0,2.76V19.48a2.77,2.77,0,0,0,2.76,2.76H16.25A2.77,2.77,0,0,0,19,19.48V2.76A2.77,2.77,0,0,0,16.25,0Zm.46,18a1.84,1.84,0,0,1-1.84,1.84H4.14A1.84,1.84,0,0,1,2.3,18V4.28A1.85,1.85,0,0,1,4.14,2.44H14.88a1.84,1.84,0,0,1,1.84,1.84Z"/><rect class="cls-1" x="4.02" y="9.89" width="10.97" height="2.69" rx="0.92" ry="0.92"/><rect class="cls-1" x="4.02" y="5.75" width="10.97" height="2.68" rx="0.92" ry="0.92"/><path class="cls-1" d="M14.07,14H4.95A.92.92,0,0,0,4,15v.85a.92.92,0,0,0,.92.92h9.12A.92.92,0,0,0,15,15.8V15A.92.92,0,0,0,14.07,14Z"/></g></g></svg>